<svg xmlns="http://www.w3.org/2000/svg" width="256" height="256" viewBox="0 0 256 256">
  <rect width="256" height="256" rx="48" fill="#20242a"/>
  <path d="M63 42h130a20 20 0 0 1 20 20v144a20 20 0 0 1-20 20H63a20 20 0 0 1-20-20V62a20 20 0 0 1 20-20Z" fill="#30353d" stroke="#61d4e8" stroke-width="8"/>
  <path d="M72 42h112v38H72z" fill="#15181c"/>
  <path d="M87 42v27m21-27v27m20-27v27m21-27v27m20-27v27" stroke="#aeb6be" stroke-width="7"/>
  <rect x="70" y="105" width="116" height="76" rx="10" fill="#4da3ff"/>
  <text x="128" y="153" text-anchor="middle" fill="#101820" font-family="sans-serif" font-size="42" font-weight="800">MC</text>
  <text x="128" y="205" text-anchor="middle" fill="#e9edf0" font-family="sans-serif" font-size="16" font-weight="700">8MB</text>
</svg>
